<?xml version="1.0" encoding="UTF-8"?>
<!DOCTYPE svg PUBLIC "-//W3C//DTD SVG 1.1//EN" "http://www.w3.org/Graphics/SVG/1.1/DTD/svg11.dtd">
<!-- Creator: CorelDRAW -->
<svg xmlns="http://www.w3.org/2000/svg" xml:space="preserve" width="210mm" height="297mm" version="1.1" style="shape-rendering:geometricPrecision; text-rendering:geometricPrecision; image-rendering:optimizeQuality; fill-rule:evenodd; clip-rule:evenodd"
viewBox="0 0 21000 29700"
 xmlns:xlink="http://www.w3.org/1999/xlink"
 enable-background="new 0 0 334 84"
 xmlns:dc="http://purl.org/dc/elements/1.1/"
 xmlns:cc="http://creativecommons.org/ns#"
 xmlns:rdf="http://www.w3.org/1999/02/22-rdf-syntax-ns#"
 xmlns:svg="http://www.w3.org/2000/svg"
 xmlns:sodipodi="http://sodipodi.sourceforge.net/DTD/sodipodi-0.dtd"
 xmlns:inkscape="http://www.inkscape.org/namespaces/inkscape"
 inkscape:version="0.92.3 (2405546, 2018-03-11)"
 sodipodi:docname="aeromexico.svg">
 <defs>
  <style type="text/css">
   <![CDATA[
    .fil0 {fill:black}
    .fil5 {fill:#7E3620}
    .fil3 {fill:#F9A451}
    .fil4 {fill:#F9A453}
    .fil1 {fill:#FFD893}
    .fil2 {fill:white}
    .fil7 {fill:#332C2B;fill-rule:nonzero}
    .fil6 {fill:#00A25F;fill-rule:nonzero}
   ]]>
  </style>
 </defs>
 <g id="Layer_x0020_1">
  <metadata id="CorelCorpID_0Corel-Layer"/>
  <g id="Citylink_x0020_Express.cdr">
   <sodipodi:namedview pagecolor="#ffffff" bordercolor="#666666" borderopacity="1" objecttolerance="10" gridtolerance="10" guidetolerance="10" inkscape:pageopacity="0" inkscape:pageshadow="2" inkscape:window-width="1280" inkscape:window-height="1004" id="namedview198" showgrid="false" fit-margin-top="0" fit-margin-left="0" fit-margin-right="0" fit-margin-bottom="0" inkscape:zoom="8.7486948" inkscape:cx="247.11667" inkscape:cy="40.949792" inkscape:window-x="-8" inkscape:window-y="-8" inkscape:window-maximized="1" inkscape:current-layer="g3"/>
   <sodipodi:namedview id="base" pagecolor="#00ffff" bordercolor="#666666" borderopacity="1.0" inkscape:pageopacity="0" inkscape:pageshadow="2" inkscape:zoom="1.4" inkscape:cx="451.73565" inkscape:cy="-10.201303" inkscape:document-units="px" inkscape:current-layer="layer1" showgrid="false" fit-margin-left="0.3" fit-margin-top="0.3" fit-margin-right="0.3" fit-margin-bottom="0.3" units="px" inkscape:window-width="1920" inkscape:window-height="1001" inkscape:window-x="-9" inkscape:window-y="-9" inkscape:window-maximized="1"/>
   <g>
    <g>
     <path class="fil0" d="M7292 14644l24 144c14,95 21,301 -44,353 -36,-15 -30,-15 -39,-56 -15,-68 -56,-197 -51,-238 -17,-25 -41,-119 -57,-205 -39,-78 -59,-473 -286,-379 -126,53 14,479 8,585 -68,-123 -227,-535 -402,-439 -113,63 -33,287 5,379 27,64 67,125 91,183 -32,47 -98,79 -106,167 -2,21 3,38 2,55 -1,48 -34,40 -40,171 -6,127 13,142 76,205 40,39 108,103 139,144 84,111 123,281 232,335 122,61 59,18 162,121 47,47 83,108 129,157 135,-44 465,-316 585,-319 49,-1 95,5 147,0 141,-11 292,-63 391,-168 25,-26 7,-18 42,-32l34 60 -20 55c-26,72 31,125 69,151 60,40 91,43 168,44 21,-38 48,-12 90,9 118,56 224,-10 241,-131 -60,-13 -128,-47 -167,-82 23,-175 -19,-146 48,-192 48,-33 116,-66 189,-74 23,-12 138,-26 167,-9 228,55 374,71 615,39 269,-35 419,-80 627,-250 39,-31 85,-75 112,-108 51,-63 78,-30 173,-29 138,0 245,-48 294,-144 118,-233 103,-509 -235,-162 -59,61 -161,164 -204,234 -102,-4 -583,-40 -637,-59 -3,-53 -10,-111 -11,-163 -2,-70 20,-82 -8,-148 -44,18 -75,72 -114,105 -34,28 -82,64 -129,89 -80,43 -243,106 -348,90 -10,6 -271,17 -318,23 -167,54 -294,91 -347,246l-58 -6c-23,-172 172,-88 181,-291 62,-25 60,-54 96,-82 27,-101 50,-147 58,-270 8,-130 -7,-189 -52,-287l-63 -12 -10 -153c30,-17 9,-7 34,-10 18,-28 53,-45 75,-73 19,-24 40,-58 50,-96 11,-46 12,-94 -19,-128 -55,-26 -62,8 -109,8 -68,-6 -123,-21 -150,-76 -1,-2 -3,-3 -3,-4l-9 -14c-28,-53 -30,-88 -83,-173l-115 -165 -30 -31c-34,-13 -97,-69 -154,-99 -141,-75 -276,-83 -427,-33 -35,12 -70,27 -102,44 -64,34 -132,83 -176,126 -223,220 -127,257 -275,320 -57,24 -168,58 -191,111 -17,40 -14,234 -7,281 19,130 77,89 167,134 41,20 68,172 75,222z"/>
     <path class="fil1" d="M7785 14423c35,18 171,26 211,10 29,-12 37,-34 45,-73 8,-35 24,-70 23,-98 -62,-4 -75,64 -188,32 -136,-37 -108,92 -95,123 1,1 3,4 4,6zm-488 -1c55,-47 188,-114 257,-156 34,-21 101,-53 120,-82 50,-73 -22,-82 97,-114 34,115 80,113 215,115 86,2 222,8 304,24 151,78 -68,922 -58,1249 -77,-13 -138,-67 -219,-67 -142,-1 -89,71 -161,115 -69,41 -147,-37 -187,-69 -138,-111 -144,-39 -152,-134 133,20 262,16 376,-54 70,-43 17,-23 106,-30 2,-57 -16,-52 -34,-96 -16,-38 -8,-63 -31,-99 -59,21 -31,88 -26,130 -60,63 -135,97 -252,95 26,-60 61,-94 85,-169 25,-74 31,-144 20,-227 -124,14 -62,136 -174,129 -70,-22 -79,-284 -76,-350 4,-95 8,-106 60,-152 60,-54 27,-78 51,-149 30,-20 51,-10 85,-25l-4 -37c-53,-30 -145,44 -187,73 -43,29 -143,111 -42,148 -4,143 -16,290 11,428 51,258 179,94 222,69 -5,70 -39,133 -72,179 -15,21 -39,50 -55,63 -35,28 -38,19 -64,55l-19 -22c-89,-110 -78,-60 -141,-108 24,-147 43,-228 25,-389 -21,-197 -61,-240 -80,-343z"/>
     <path class="fil2" d="M7901 13770c26,-14 176,2 222,-1 90,-4 112,-19 188,26 78,47 49,74 39,177 -7,71 6,146 -58,172 -43,18 -391,-11 -425,-34 -89,-58 -66,-288 34,-340zm352 40c-76,-9 -284,-19 -325,25 -48,51 -57,221 19,251 1,0 271,47 306,-9 22,-34 21,-99 27,-146 11,-73 13,-72 -27,-121zm-1160 510c-3,-75 -16,-213 -1,-280 13,-56 30,-38 80,-65 30,-17 57,-32 90,-47 157,-76 324,-190 368,-37 16,58 27,197 -3,247 -15,25 -289,207 -333,234 -44,26 -58,7 -106,-12 -34,-14 -62,-21 -95,-40zm355 -439c-98,24 -201,86 -237,179 -15,40 -42,106 -48,155 -7,67 40,117 105,95 10,-3 227,-158 242,-171 51,-43 80,-293 -62,-258z"/>
     <path class="fil3" d="M10567 15222c1,-33 128,-173 157,-201 22,-20 158,-189 206,-143 26,24 50,395 -363,344zm-986 -110c125,-57 180,-142 219,-156l1 196 -265 -13 45 -27zm-864 327l-82 -26c29,-153 223,-229 405,-225 -30,29 -97,47 -178,111 -60,47 -119,119 -145,140zm137 167c-36,-46 -62,-85 -98,-124 39,-87 165,-175 274,-217 165,-63 330,-64 510,-64 115,-1 847,40 900,72 -142,167 -453,302 -676,342 -413,74 -563,-36 -681,-45 -99,-6 -148,24 -229,36zm-344 -165c120,-24 272,113 279,197l-98 52c-61,-74 -52,-82 -167,-68l-14 -181z"/>
     <path class="fil4" d="M7526 15562l1 -147c51,16 93,47 92,107 -23,24 -44,34 -93,40zm-2 70c85,-52 80,3 150,-109 50,13 88,42 156,35 123,-12 63,-167 275,-94l105 41c6,3 12,7 17,11 39,27 23,111 53,214 -75,111 -251,195 -435,217 -133,15 -161,-17 -232,-83 -52,-47 -112,-123 -89,-232z"/>
     <path class="fil5" d="M7230 15963c29,2 129,117 123,156 -34,-4 -54,-45 -72,-69 -22,-29 -50,-55 -51,-87zm-753 -669c28,21 53,59 77,84 31,30 56,46 87,78 24,24 59,52 89,75 19,15 32,18 38,46 6,32 -5,55 -28,62 -109,35 -397,-215 -263,-345zm8 -131c-13,-57 55,-223 218,-25 57,68 128,189 160,278 20,56 16,134 -64,93 -85,-43 -291,-241 -314,-346zm688 -81c-64,-6 -129,-42 -207,-16 -71,25 -232,190 167,353l1 72c-154,36 -211,204 -164,268 85,-5 12,-133 134,-187 112,-50 98,49 94,-209 -53,-20 -118,-41 -168,-68 -73,-39 -123,-148 -23,-163 97,-16 301,89 385,131 117,58 71,386 87,461 25,124 104,156 157,225 -20,16 -184,115 -219,119 -23,-32 -130,-169 -163,-187 -35,7 -79,34 -100,59 0,107 96,167 110,229l-118 68c-84,-62 -78,-141 -255,-246 -72,-42 -77,-49 -113,-133 -29,-68 -76,-102 -103,-159 108,4 110,-14 160,-86 39,-55 104,-8 88,-154 -23,-209 -126,-360 -283,-469 -90,-63 -253,-478 -169,-535 92,-25 120,30 155,83 47,73 122,245 171,333 26,48 65,129 126,125 6,-54 -46,-357 -59,-411 -15,-61 -33,-152 -24,-218 12,-91 76,-85 130,-36 38,35 90,300 107,368 28,111 82,277 96,383zm1436 968l70 -74c39,2 85,26 116,46 -14,94 -134,78 -186,28zm46 -165c-26,62 -85,172 -165,156 -32,-6 -76,-42 -91,-67 -30,-47 4,-81 26,-116 17,-28 105,-169 140,-180 74,-22 119,138 90,207zm-249 -1819c249,1 329,337 271,417 -8,12 -143,189 -47,164 22,-6 46,-43 59,-60 24,-30 45,-72 83,-82 55,80 77,456 -83,524 -40,-23 -91,-122 -99,-187 -5,-43 3,-56 -38,-66 -49,48 -4,151 22,200 37,67 86,82 79,190 -45,28 -93,38 -136,89 -37,44 -58,103 -59,182 -5,226 68,221 -89,365l-54 -192c-45,-274 -15,-424 38,-682 37,-175 89,-504 36,-681 -23,-77 -39,-103 17,-181zm36 -168c167,-8 117,104 260,145 66,19 73,-4 124,5 70,83 -36,167 -91,189 -69,-60 -67,-169 -307,-217 -2,-31 0,-94 14,-122zm-736 127c-1,-52 -4,-49 45,-53 3,55 12,56 -45,53zm-6 -172l67 2 -10 55 -56 2 -1 -59zm-277 -67c54,-148 342,-395 589,-367 132,16 239,100 311,163 37,33 176,197 198,264l-99 -16c-40,-52 -44,-115 -135,-120 -80,-5 -155,-4 -236,-14 -97,-11 -138,-12 -206,37 -93,68 5,60 -171,78 -39,-31 -40,-46 -109,-50 -55,-2 -96,15 -142,25z"/>
    </g>
    <path class="fil6" d="M9824 14478c-27,36 -61,62 -101,80 -40,18 -91,27 -152,27 -76,0 -137,-11 -184,-33 -48,-22 -89,-60 -123,-115 -35,-55 -52,-125 -52,-211 0,-114 30,-201 91,-263 61,-61 146,-92 258,-92 86,0 155,18 205,53 67,48 106,123 115,204l-192 0c-7,-21 -14,-36 -21,-46 -12,-16 -27,-29 -44,-38 -17,-8 -37,-13 -58,-13 -48,0 -86,20 -111,58 -20,29 -29,75 -29,136 0,77 11,129 34,157 24,29 56,43 98,43 41,0 72,-12 93,-35 21,-23 36,-56 45,-99l188 -1c-1,75 -12,127 -60,188zm171 -595l214 0 0 690 -214 0 0 -690zm318 0l648 0 0 170 -218 0 0 520 -212 0 0 -520 -218 0 0 -170zm674 0l237 0 139 232 139 -232 236 0 -268 401 0 289 -214 0 0 -289 -269 -401zm687 364l278 0 0 149 -278 0 0 -149zm370 -364l213 0 0 520 333 0 0 170 -546 0 0 -690zm651 0l214 0 0 690 -214 0 0 -690zm368 0l199 0 259 381 0 -381 201 0 0 690 -201 0 -257 -379 0 379 -201 0 0 -690zm802 0l213 0 0 261 223 -261 283 0 -251 259 263 431 -262 0 -146 -283 -110 115 0 168 -213 0 0 -690z"/>
    <path class="fil7" d="M12441 15242l-301 0 0 -186 273 0 0 -36 -273 0 0 -186 293 0 0 -35 -342 0 0 478 350 0 0 -35zm226 -151l145 -180 -56 0 -116 153 -114 -153 -57 0 141 181 -148 185 57 0 119 -157 118 157 57 0 -146 -186zm407 -190c-48,0 -89,12 -118,37l-27 40 0 -70 -48 0 0 505 48 0 0 -198 26 39c26,22 66,33 106,33 105,0 198,-65 198,-198 0,-108 -69,-188 -185,-188l0 0zm-13 352c-61,0 -132,-36 -132,-140l0 -28c0,-111 64,-150 138,-150 91,0 138,72 138,160 0,99 -61,158 -144,158zm428 -351c-27,0 -53,11 -71,28l-30 47 0 -66 -49 0 0 366 49 0 0 -206c0,-97 53,-137 125,-132l0 -34c-7,-2 -16,-3 -24,-3zm415 182c0,-101 -60,-183 -176,-183 -109,0 -192,75 -192,193 0,129 80,193 184,193 83,0 159,-40 178,-126l-51 0c-14,61 -66,92 -124,92 -67,0 -129,-38 -135,-146l314 0c2,-11 2,-18 2,-23zm-178 -149c70,0 123,43 128,138l-266 0c7,-92 70,-138 138,-138zm383 -34c-81,0 -138,41 -138,104 0,63 59,89 130,106 81,17 111,37 111,78 0,42 -44,64 -96,64 -56,0 -100,-22 -112,-84l-50 0c12,83 77,118 159,118 85,0 148,-36 148,-101 0,-62 -46,-93 -141,-113 -60,-14 -99,-30 -99,-72 0,-41 34,-66 84,-66 56,0 89,27 101,78l51 0c-9,-64 -58,-112 -148,-112zm352 0c-81,0 -138,41 -138,104 0,63 59,89 130,106 81,17 111,37 111,78 0,42 -43,64 -96,64 -55,0 -100,-22 -112,-84l-50 0c12,83 77,118 159,118 86,0 148,-36 148,-101 0,-62 -45,-93 -141,-113 -59,-14 -98,-30 -98,-72 0,-41 33,-66 83,-66 56,0 90,27 101,78l51 0c-9,-64 -58,-112 -148,-112z"/>
   </g>
  </g>
 </g>
</svg>
