<?xml version="1.0" encoding="UTF-8"?>
<!DOCTYPE svg PUBLIC "-//W3C//DTD SVG 1.1//EN" "http://www.w3.org/Graphics/SVG/1.1/DTD/svg11.dtd">
<!-- Creator: CorelDRAW -->
<svg xmlns="http://www.w3.org/2000/svg" xml:space="preserve" width="210mm" height="297mm" version="1.1" style="shape-rendering:geometricPrecision; text-rendering:geometricPrecision; image-rendering:optimizeQuality; fill-rule:evenodd; clip-rule:evenodd"
viewBox="0 0 21000 29700"
 xmlns:xlink="http://www.w3.org/1999/xlink"
 enable-background="new 0 0 334 84"
 xmlns:dc="http://purl.org/dc/elements/1.1/"
 xmlns:cc="http://creativecommons.org/ns#"
 xmlns:rdf="http://www.w3.org/1999/02/22-rdf-syntax-ns#"
 xmlns:svg="http://www.w3.org/2000/svg"
 xmlns:sodipodi="http://sodipodi.sourceforge.net/DTD/sodipodi-0.dtd"
 xmlns:inkscape="http://www.inkscape.org/namespaces/inkscape"
 inkscape:version="0.92.3 (2405546, 2018-03-11)"
 sodipodi:docname="aeromexico.svg">
 <defs>
  <style type="text/css">
   <![CDATA[
    .fil1 {fill:#1F4894}
    .fil4 {fill:#204994}
    .fil0 {fill:#89898A}
    .fil3 {fill:#DE0628}
    .fil2 {fill:#FCFCFE}
   ]]>
  </style>
 </defs>
 <g id="Layer_x0020_1">
  <metadata id="CorelCorpID_0Corel-Layer"/>
  <g id="Pahala_x0020_Express.cdr">
   <sodipodi:namedview pagecolor="#ffffff" bordercolor="#666666" borderopacity="1" objecttolerance="10" gridtolerance="10" guidetolerance="10" inkscape:pageopacity="0" inkscape:pageshadow="2" inkscape:window-width="1280" inkscape:window-height="1004" id="namedview198" showgrid="false" fit-margin-top="0" fit-margin-left="0" fit-margin-right="0" fit-margin-bottom="0" inkscape:zoom="8.7486948" inkscape:cx="247.11667" inkscape:cy="40.949792" inkscape:window-x="-8" inkscape:window-y="-8" inkscape:window-maximized="1" inkscape:current-layer="g3"/>
   <sodipodi:namedview id="base" pagecolor="#00ffff" bordercolor="#666666" borderopacity="1.0" inkscape:pageopacity="0" inkscape:pageshadow="2" inkscape:zoom="1.4" inkscape:cx="451.73565" inkscape:cy="-10.201303" inkscape:document-units="px" inkscape:current-layer="layer1" showgrid="false" fit-margin-left="0.3" fit-margin-top="0.3" fit-margin-right="0.3" fit-margin-bottom="0.3" units="px" inkscape:window-width="1920" inkscape:window-height="1001" inkscape:window-x="-9" inkscape:window-y="-9" inkscape:window-maximized="1"/>
   <g>
    <path class="fil0" d="M8198 14253c-102,6 -191,31 -270,71 -45,23 -91,52 -128,83 -22,19 -47,41 -66,62l-19 22c-43,48 -89,125 -113,185 -35,86 -54,187 -48,290 18,362 327,661 714,642 153,-8 313,-73 420,-174 12,-11 32,-28 43,-42 13,-14 26,-28 39,-45l35 -50c74,-110 114,-262 107,-403 -8,-139 -57,-268 -136,-372 -7,-8 -12,-16 -19,-24l-41 -45c-21,-21 -43,-40 -67,-59 -120,-96 -291,-150 -451,-141z"/>
    <path class="fil1" d="M9397 14865c0,-59 -3,-194 8,-244 14,-63 48,-119 100,-153 54,-35 131,-49 205,-28 205,59 226,364 60,476 -55,37 -127,50 -204,32 -41,-10 -139,-57 -169,-83zm-176 644l176 0 0 -498c7,2 28,13 36,17 12,6 25,12 37,17 24,11 53,22 80,28 128,29 259,-3 348,-92 5,-5 9,-9 14,-14 27,-26 51,-62 67,-97 50,-106 52,-257 0,-358 -21,-40 -57,-94 -94,-122 -10,-8 -19,-16 -31,-24 -36,-23 -68,-40 -113,-50 -110,-27 -214,-11 -308,47 -22,14 -72,53 -88,75 -52,71 -76,138 -96,230 -29,135 -28,265 -28,407 0,144 -1,289 0,434z"/>
    <path class="fil0" d="M8184 14233c109,-8 210,10 302,46 42,15 84,37 117,58 23,14 81,55 100,75 8,8 14,13 22,21l43 46c6,8 13,16 19,24 82,103 135,238 145,380 28,399 -282,722 -652,745 -401,26 -722,-279 -747,-649 -10,-159 28,-290 104,-418 19,-30 68,-95 97,-122 22,-20 30,-30 57,-52 40,-31 70,-52 119,-78 78,-40 173,-69 274,-76zm-728 657l0 76c2,7 7,69 9,83 51,332 314,596 645,647 13,2 79,7 84,9l72 0c6,-2 52,-4 64,-6 139,-17 273,-73 379,-157 30,-23 60,-49 85,-77 3,-3 6,-5 10,-8 3,-4 5,-7 8,-10 37,-46 46,-51 84,-113 144,-232 153,-544 12,-787 -25,-42 -44,-71 -73,-106l-25 -28c-16,-18 -35,-38 -53,-54l-49 -41c-247,-196 -606,-213 -873,-53 -42,25 -78,52 -114,82 -3,3 -5,6 -9,9l-71 73c-94,103 -159,258 -178,396 -2,13 -4,56 -7,65z"/>
    <path class="fil1" d="M13368 14863c-6,10 -63,40 -79,48 -27,14 -57,29 -90,37 -74,18 -150,5 -203,-32 -169,-115 -144,-415 58,-476 81,-24 167,-5 224,42l16 15c30,26 56,80 66,123 11,52 8,183 8,243zm176 208l0 -767 -176 0 0 84c-9,-4 -40,-32 -84,-51 -108,-47 -237,-45 -336,7 -51,26 -95,65 -128,110 -4,6 -9,14 -13,21 -95,156 -76,380 56,503 22,21 47,42 78,59 100,56 222,62 333,17l70 -32c8,-3 16,-8 23,-11l1 60 176 0z"/>
    <path class="fil1" d="M10672 14863c-5,10 -62,40 -77,48 -28,14 -56,28 -89,37 -105,27 -212,-10 -268,-93 -94,-138 -52,-363 120,-415 134,-40 272,30 306,179 12,52 8,184 8,244zm0 148l0 60 177 0 0 -766 -176 -1 -1 84c-9,-4 -39,-32 -83,-51 -108,-47 -237,-45 -336,7 -128,66 -199,195 -200,344 -3,251 194,416 417,393 44,-4 72,-13 109,-27 27,-11 84,-40 93,-43z"/>
    <path class="fil1" d="M12284 14864c-24,25 -131,75 -168,84 -76,18 -150,5 -204,-32 -43,-30 -86,-80 -102,-150 -30,-133 21,-286 162,-326 138,-39 274,36 305,181 11,53 8,183 7,243zm0 147l0 60 177 0 0 -767 -176 0 -1 84 -39 -27c-110,-71 -267,-76 -380,-17 -128,66 -199,194 -200,344 -3,248 191,417 419,393 43,-4 71,-13 108,-28l92 -42z"/>
    <path class="fil1" d="M11100 13995l-179 0 0 1076 178 0c3,-51 1,-148 1,-205 0,-68 0,-137 0,-206 0,-35 -2,-62 8,-94 24,-81 91,-132 177,-132 63,0 103,23 140,64 37,41 45,94 45,162l0 308c0,33 -1,71 1,103l133 0c2,-24 0,-130 0,-164 0,-55 0,-110 0,-165 0,-112 3,-196 -46,-286 -67,-121 -199,-171 -340,-147 -23,4 -44,10 -64,18 -22,9 -37,19 -54,29l0 -361z"/>
    <path class="fil2" d="M8026 15211c11,56 68,147 110,190l65 61c4,4 9,7 14,11 28,22 57,44 88,63 16,10 13,13 37,9 14,-2 28,-5 42,-8 18,-5 63,-17 76,-25l-83 -44c-42,-25 -43,-28 -77,-52 -6,-5 -10,-9 -17,-15 -17,-15 -35,-30 -49,-49 -11,-15 -44,-58 -48,-81l56 -38c20,-14 37,-28 55,-42 19,-15 59,-53 75,-70 4,-4 8,-8 12,-12 70,-80 118,-152 152,-259 49,-155 33,-308 -9,-463 -3,-13 -3,-11 -27,-22 -41,-18 -98,-40 -148,-47 4,19 13,44 18,64 64,262 25,487 -160,683 -39,41 -87,78 -133,112 -9,6 -15,11 -25,17 -7,5 -18,11 -24,17z"/>
    <polygon class="fil1" points="12696,13995 12519,13995 12519,15071 12696,15071 "/>
    <path class="fil2" d="M8264 15281c14,26 67,78 91,98 57,46 97,66 168,95 14,6 14,2 26,-5 14,-9 61,-38 67,-47 -56,-21 -113,-67 -154,-110 -4,-5 -15,-15 -18,-21l54 -32c58,-37 106,-78 151,-130 51,-58 90,-142 107,-218 22,-103 16,-210 -5,-311 -7,-31 -7,-31 -29,-58 -28,-34 -51,-59 -85,-88 -8,-6 -16,-12 -24,-19 -7,-5 -18,-14 -26,-18 3,20 10,43 14,64 4,23 7,45 10,68 16,135 1,281 -55,401 -36,77 -70,127 -124,188 -43,48 -91,89 -145,126 -7,5 -17,12 -23,17z"/>
    <path class="fil3" d="M12295 15283c65,-11 34,82 22,113 -14,35 -44,85 -91,77 -24,-4 -46,-26 -41,-43 6,-20 13,-46 22,-63 16,-32 49,-77 88,-84zm-72 -9c2,-13 15,-40 13,-52 -13,-7 -55,-9 -67,2 -8,7 -54,164 -59,181l-57 183c-4,12 -19,53 -16,62 6,11 53,7 62,5 22,-3 20,-13 28,-40l34 -104c5,4 10,15 29,24 42,21 95,5 129,-19 87,-59 147,-261 59,-298 -29,-13 -68,-5 -93,7 -24,12 -46,27 -62,49z"/>
    <path class="fil4" d="M8730 15308c88,-114 135,-261 127,-409 -1,-32 -5,-63 -12,-94 -2,-11 -16,-73 -24,-83 -4,85 3,108 -18,201 -19,81 -55,164 -104,226l-38 45c-6,6 -8,8 -14,13l-28 27c-4,4 -11,9 -15,13 -18,14 -61,47 -80,55 3,4 1,2 5,5 1,0 3,1 4,2 36,23 109,56 148,58l49 -59z"/>
    <path class="fil3" d="M12794 15345c5,-24 26,-48 41,-59 17,-13 56,-25 76,-7 15,13 11,45 -26,58 -25,8 -63,10 -91,8zm-19 55c26,-3 56,1 100,-5 25,-4 60,-14 78,-26 59,-37 62,-107 22,-136 -58,-42 -163,-20 -212,33 -4,4 -8,7 -13,12 -11,12 -32,47 -40,65 -62,152 -14,228 160,194 39,-7 58,-16 64,-64 2,-22 -17,-6 -53,2 -37,7 -107,21 -112,-30 -1,-11 2,-36 6,-45z"/>
    <path class="fil3" d="M11568 15345c15,-60 89,-93 117,-66 11,11 9,24 3,37 -15,30 -91,31 -120,29zm-19 54c74,-2 140,1 193,-41l14 -13c7,-8 13,-21 17,-35 31,-124 -185,-133 -260,-16 -4,5 -8,10 -11,15 -7,12 -13,22 -18,35 -19,42 -42,125 -9,167 33,40 107,38 168,26 41,-7 60,-18 65,-64 2,-21 -15,-7 -54,2 -26,6 -65,12 -90,1 -29,-12 -21,-47 -15,-77z"/>
    <path class="fil3" d="M11862 15375l-85 96c-4,4 -5,5 -9,9l-34 39c-4,4 -5,7 -5,15 19,7 46,6 69,4 23,-3 22,-11 41,-32l34 -41c5,-7 11,-14 17,-21 5,-7 11,-13 16,-20 8,9 22,102 28,109 7,9 70,8 81,1 12,-8 -7,-63 -13,-84 -3,-13 -19,-68 -19,-79 4,-3 5,-6 8,-9 3,-4 5,-5 8,-9l79 -91c7,-8 28,-30 28,-40 -7,-6 -72,-13 -88,7l-82 96c-8,-25 -13,-57 -19,-82 -5,-21 -3,-24 -25,-26 -77,-4 -67,8 -61,33 5,19 30,114 31,125z"/>
    <path class="fil3" d="M13544 15245l0 -10c-10,-10 -17,-15 -34,-18 -161,-33 -222,99 -176,158 16,21 66,34 79,54 6,9 5,37 -27,50 -29,12 -63,3 -85,-10 -15,-9 -21,-19 -31,2 -4,9 -12,31 -11,43 2,21 60,29 75,30 57,4 120,-16 149,-63 22,-35 31,-85 -8,-116 -29,-24 -99,-33 -64,-78 17,-22 54,-19 83,-8 13,5 26,18 35,5 8,-12 10,-30 15,-39z"/>
    <path class="fil3" d="M13175 15213c-117,11 -155,131 -98,171 25,19 52,26 66,42 11,13 6,51 -40,57 -24,4 -46,-1 -66,-13 -16,-8 -28,-27 -41,17 -6,22 -9,31 6,40 57,35 186,23 223,-64 11,-27 15,-62 -3,-84 -32,-39 -92,-39 -87,-73 2,-14 13,-25 24,-30 31,-14 62,-2 87,12 15,8 20,-11 25,-23 5,-16 10,-29 -3,-39 -21,-14 -66,-16 -93,-13z"/>
    <path class="fil3" d="M12579 15274l14 -49c-9,-12 -39,-9 -53,-7 -21,3 -19,16 -25,35l-58 187c-5,16 -28,82 -26,94 15,6 39,6 57,4 27,-3 24,-10 31,-33 9,-27 37,-122 48,-143 15,-28 35,-53 62,-67 40,-21 49,32 69,-32 3,-11 11,-31 10,-43 -23,-17 -57,-6 -78,6 -22,11 -36,31 -51,48z"/>
    <path class="fil4" d="M8238 15554l-46 -33c-11,-9 -58,-47 -67,-57 -17,-19 -30,-30 -48,-53 -32,-43 -45,-57 -73,-112 -16,-31 -37,-81 -46,-118l47 -31c43,-30 73,-56 111,-89 5,-6 11,-13 20,-21 21,-19 58,-66 74,-87 20,-27 44,-67 59,-101 80,-174 73,-353 19,-543 -90,-13 -201,10 -278,38 -36,13 -77,34 -106,53 -44,28 -56,38 -92,69 -55,48 -103,113 -138,181 -82,160 -89,358 -17,524 96,223 319,386 581,380z"/>
   </g>
  </g>
 </g>
</svg>
