<?xml version="1.0" encoding="UTF-8"?>
<!DOCTYPE svg PUBLIC "-//W3C//DTD SVG 1.1//EN" "http://www.w3.org/Graphics/SVG/1.1/DTD/svg11.dtd">
<!-- Creator: CorelDRAW -->
<svg xmlns="http://www.w3.org/2000/svg" xml:space="preserve" width="210mm" height="297mm" version="1.1" style="shape-rendering:geometricPrecision; text-rendering:geometricPrecision; image-rendering:optimizeQuality; fill-rule:evenodd; clip-rule:evenodd"
viewBox="0 0 21000 29700"
 xmlns:xlink="http://www.w3.org/1999/xlink"
 enable-background="new 0 0 334 84"
 xmlns:dc="http://purl.org/dc/elements/1.1/"
 xmlns:cc="http://creativecommons.org/ns#"
 xmlns:rdf="http://www.w3.org/1999/02/22-rdf-syntax-ns#"
 xmlns:svg="http://www.w3.org/2000/svg"
 xmlns:sodipodi="http://sodipodi.sourceforge.net/DTD/sodipodi-0.dtd"
 xmlns:inkscape="http://www.inkscape.org/namespaces/inkscape"
 inkscape:version="0.92.3 (2405546, 2018-03-11)"
 sodipodi:docname="aeromexico.svg">
 <defs>
  <style type="text/css">
   <![CDATA[
    .fil1 {fill:black}
    .fil0 {fill:red}
   ]]>
  </style>
 </defs>
 <g id="Layer_x0020_1">
  <metadata id="CorelCorpID_0Corel-Layer"/>
  <g id="PCP_x0020_Express.cdr">
   <sodipodi:namedview pagecolor="#ffffff" bordercolor="#666666" borderopacity="1" objecttolerance="10" gridtolerance="10" guidetolerance="10" inkscape:pageopacity="0" inkscape:pageshadow="2" inkscape:window-width="1280" inkscape:window-height="1004" id="namedview198" showgrid="false" fit-margin-top="0" fit-margin-left="0" fit-margin-right="0" fit-margin-bottom="0" inkscape:zoom="8.7486948" inkscape:cx="247.11667" inkscape:cy="40.949792" inkscape:window-x="-8" inkscape:window-y="-8" inkscape:window-maximized="1" inkscape:current-layer="g3"/>
   <sodipodi:namedview id="base" pagecolor="#00ffff" bordercolor="#666666" borderopacity="1.0" inkscape:pageopacity="0" inkscape:pageshadow="2" inkscape:zoom="1.4" inkscape:cx="451.73565" inkscape:cy="-10.201303" inkscape:document-units="px" inkscape:current-layer="layer1" showgrid="false" fit-margin-left="0.3" fit-margin-top="0.3" fit-margin-right="0.3" fit-margin-bottom="0.3" units="px" inkscape:window-width="1920" inkscape:window-height="1001" inkscape:window-x="-9" inkscape:window-y="-9" inkscape:window-maximized="1"/>
   <g>
    <path class="fil0" d="M9004 15516l1014 0c35,-47 97,-120 134,-165l135 -166c6,6 73,210 85,247 8,24 18,61 28,83l337 1 -203 -534c4,-8 19,-25 25,-31 48,-56 108,-130 157,-189l78 -93c18,-22 35,-41 53,-63l79 -95c6,-6 23,-25 26,-33l-322 0c-7,1 -27,30 -32,37l-152 200c-5,7 -54,74 -61,79 -5,-9 -43,-138 -49,-158l-37 -120c-2,-9 -7,-34 -14,-38l-326 0c2,15 158,423 170,456 17,45 22,36 -7,68 -46,51 -98,118 -144,168l-283 332c-8,10 1,2 -9,7l56 -228 -429 -1c1,-16 30,-122 37,-153 2,-7 9,-48 16,-50l384 0 54 -213 -387 0 40 -164 418 0 56 -222 -669 0c-45,172 -87,347 -130,519l-97 389c-6,21 -32,117 -31,130zm3013 -617c0,-16 22,-85 28,-105l29 -105 125 -1c54,0 109,8 109,66 0,63 -44,117 -91,129 -70,20 -125,16 -200,16zm-457 617l281 0 119 -421c93,-1 100,24 120,127 12,63 23,124 36,187 6,31 12,63 18,94 2,12 0,13 12,13l85 0c74,0 148,0 222,0 1,-13 -39,-231 -45,-264 -8,-47 -29,-136 -66,-165 -20,-16 -42,-22 -49,-30 103,-30 146,-54 217,-132 80,-89 161,-327 23,-411 -43,-26 -128,-35 -187,-35l-494 0c-7,13 -143,504 -147,517 -24,87 -48,172 -73,259 -12,44 -24,87 -36,131 -6,20 -36,117 -36,130zm-319 -835c45,-1 125,1 162,16 50,21 53,79 38,124 -34,107 -155,103 -251,95l51 -235zm96 454c123,0 220,-38 298,-120 102,-105 182,-384 40,-490 -51,-38 -115,-52 -193,-54 -106,-3 -409,-17 -495,-12l-231 1057 300 7c7,-12 38,-169 44,-196 9,-42 38,-165 42,-197l195 5zm1129 381l678 0c5,-9 57,-218 59,-236l-428 0 50 -203 366 0c21,0 21,4 25,-15 7,-31 48,-183 48,-198l-385 0 40 -164 418 0 56 -222 -669 0c-23,85 -44,173 -65,259 -12,49 -194,766 -193,779zm1035 -362c-54,0 -119,9 -174,13 -15,1 -29,2 -43,3 -24,2 -25,-4 -29,19 -11,81 -11,166 26,238 68,133 320,119 425,81 94,-35 162,-95 207,-163 47,-68 96,-173 88,-282 -9,-118 -79,-162 -168,-202 -43,-19 -90,-33 -137,-47 -24,-7 -50,-18 -60,-34 -33,-50 34,-148 134,-121 59,17 56,64 55,129l239 -17c11,-33 9,-119 1,-153 -31,-152 -196,-170 -337,-152 -178,22 -309,149 -342,320 -23,118 15,187 81,236 30,23 71,42 111,57 41,15 84,24 119,46 45,27 51,73 31,118 -42,94 -162,112 -210,50 -30,-40 -19,-86 -17,-139zm1263 -83c0,-178 -153,-225 -299,-268 -36,-11 -78,-25 -76,-69 6,-83 119,-118 174,-72 27,22 27,69 24,113l239 -17c6,-19 8,-59 8,-80 0,-162 -88,-230 -254,-230 -85,0 -159,9 -227,46 -62,33 -96,66 -134,116 -71,95 -120,265 -25,368 107,116 294,89 306,193 9,70 -53,130 -109,141 -87,19 -132,-33 -132,-114 -1,-16 2,-41 4,-57 -36,-1 -84,6 -122,9l-94 7c-10,1 -21,0 -25,4 -12,12 -37,228 64,306 96,73 303,65 411,16 52,-23 103,-60 132,-93 35,-40 64,-78 91,-135 25,-52 44,-117 44,-184zm-6220 -628l14 -3c15,-9 301,-106 332,-117 20,-7 38,-13 57,-19 17,-6 43,-15 61,-17 -2,21 -7,114 -2,127 17,2 38,-25 47,-36 25,-31 48,-64 71,-98 12,-16 23,-36 35,-51 39,-3 105,-11 97,-54 -20,-20 -70,-3 -95,5 -27,9 -22,9 -51,5 -59,-7 -242,-31 -279,-11 4,5 7,6 13,8l98 47c4,3 1,1 4,3 -8,5 -152,43 -175,50 -58,16 -482,150 -502,169 71,0 140,-3 210,-5 21,-1 45,-4 65,-3z"/>
    <path class="fil1" d="M6731 14969l59 -216c45,-5 87,-1 121,18 40,22 23,64 14,105 -18,79 -142,84 -194,93zm554 -141c10,-49 25,-84 17,-141 -33,-234 -394,-233 -580,-227 -49,2 -100,7 -149,11 -6,1 -138,11 -145,18 -3,5 -119,471 -130,518 -13,50 -133,511 -132,518l149 1c23,1 27,4 44,-7l264 -186c1,-1 1,-1 2,-1 0,0 1,-1 1,-1 9,-7 27,-93 36,-117 24,-1 47,-1 71,-2 20,0 49,4 64,-7 27,-20 55,-38 84,-58 127,-83 222,-141 354,-216 31,-18 61,-34 92,-51 63,-34 123,-67 189,-99 40,-20 103,-53 143,-71l444 -200c21,-9 90,-35 102,-43l-3 -2c-23,-9 -117,-20 -139,-22 -53,-4 -108,-2 -160,5 -133,17 -252,68 -357,140 -94,65 -125,99 -200,173l-56 64c-3,3 -1,1 -5,3zm1263 102l56 -215c42,-1 104,-4 135,16 45,30 29,53 17,106 -17,75 -150,96 -208,93zm10 -490l-14 3 -306 141c-19,8 -16,9 -22,30l-204 898 397 -5c14,-46 65,-315 72,-324 97,-5 195,-10 292,-15 29,-2 102,-47 124,-62 216,-141 354,-522 106,-631 -131,-57 -305,-39 -445,-35zm-508 670c-39,16 -66,47 -157,66 -91,19 -190,-12 -237,-84 -15,-23 -25,-54 -22,-88 5,-45 30,-78 56,-110 6,-7 22,-22 25,-29 -14,5 -50,30 -65,39l-188 113c-75,46 -179,112 -251,152 5,38 41,113 59,144 141,240 413,250 665,191 23,-6 21,0 28,-24 17,-68 78,-306 87,-370zm-237 -309l3 1c2,0 1,0 4,-1 23,-4 35,-8 73,-14 30,-4 63,-4 92,1 89,15 114,67 124,72l50 -235 -346 176z"/>
   </g>
  </g>
 </g>
</svg>
