<?xml version="1.0" encoding="UTF-8"?>
<!DOCTYPE svg PUBLIC "-//W3C//DTD SVG 1.1//EN" "http://www.w3.org/Graphics/SVG/1.1/DTD/svg11.dtd">
<!-- Creator: CorelDRAW -->
<svg xmlns="http://www.w3.org/2000/svg" xml:space="preserve" width="210mm" height="297mm" version="1.1" style="shape-rendering:geometricPrecision; text-rendering:geometricPrecision; image-rendering:optimizeQuality; fill-rule:evenodd; clip-rule:evenodd"
viewBox="0 0 21000 29700"
 xmlns:xlink="http://www.w3.org/1999/xlink"
 enable-background="new 0 0 334 84"
 xmlns:dc="http://purl.org/dc/elements/1.1/"
 xmlns:cc="http://creativecommons.org/ns#"
 xmlns:rdf="http://www.w3.org/1999/02/22-rdf-syntax-ns#"
 xmlns:svg="http://www.w3.org/2000/svg"
 xmlns:sodipodi="http://sodipodi.sourceforge.net/DTD/sodipodi-0.dtd"
 xmlns:inkscape="http://www.inkscape.org/namespaces/inkscape"
 inkscape:version="0.92.3 (2405546, 2018-03-11)"
 sodipodi:docname="aeromexico.svg">
 <defs>
  <style type="text/css">
   <![CDATA[
    .fil2 {fill:black}
    .fil1 {fill:#60131D}
    .fil4 {fill:#A81E29}
    .fil6 {fill:#C0BFBF}
    .fil0 {fill:red}
    .fil5 {fill:white}
    .fil3 {fill:red;fill-rule:nonzero}
   ]]>
  </style>
 </defs>
 <g id="Layer_x0020_1">
  <metadata id="CorelCorpID_0Corel-Layer"/>
  <g id="QRIM_x0020_Express.cdr">
   <sodipodi:namedview pagecolor="#ffffff" bordercolor="#666666" borderopacity="1" objecttolerance="10" gridtolerance="10" guidetolerance="10" inkscape:pageopacity="0" inkscape:pageshadow="2" inkscape:window-width="1280" inkscape:window-height="1004" id="namedview198" showgrid="false" fit-margin-top="0" fit-margin-left="0" fit-margin-right="0" fit-margin-bottom="0" inkscape:zoom="8.7486948" inkscape:cx="247.11667" inkscape:cy="40.949792" inkscape:window-x="-8" inkscape:window-y="-8" inkscape:window-maximized="1" inkscape:current-layer="g3"/>
   <sodipodi:namedview id="base" pagecolor="#00ffff" bordercolor="#666666" borderopacity="1.0" inkscape:pageopacity="0" inkscape:pageshadow="2" inkscape:zoom="1.4" inkscape:cx="451.73565" inkscape:cy="-10.201303" inkscape:document-units="px" inkscape:current-layer="layer1" showgrid="false" fit-margin-left="0.3" fit-margin-top="0.3" fit-margin-right="0.3" fit-margin-bottom="0.3" units="px" inkscape:window-width="1920" inkscape:window-height="1001" inkscape:window-x="-9" inkscape:window-y="-9" inkscape:window-maximized="1"/>
   <g>
    <polygon class="fil0" points="8701,13533 9842,14191 9842,15509 8701,16167 7560,15509 7560,14191 "/>
    <polygon class="fil1" points="8701,13533 9842,14191 8701,14850 7560,14191 "/>
    <path class="fil2" d="M10764 14371c173,0 313,141 313,314 0,79 -29,152 -78,207 -94,-117 -209,-174 -337,-194 0,66 0,132 0,197 70,1 125,39 171,96 -22,5 -45,8 -69,8 -174,0 -314,-141 -314,-314 0,-173 140,-314 314,-314zm379 634c43,20 93,37 156,47 -1,57 -2,115 -3,173 -144,-6 -244,-42 -325,-89 -63,29 -133,45 -207,45 -274,0 -497,-222 -497,-496 0,-274 223,-496 497,-496 274,0 496,222 496,496 0,122 -44,233 -117,320zm529 220c-48,0 -96,1 -144,1 0,-277 0,-553 0,-830 108,0 215,0 322,0 330,16 391,413 137,561 64,90 127,181 190,271 -60,0 -120,0 -180,0 -56,-85 -112,-171 -168,-257 -52,0 -105,0 -157,0 0,85 0,169 0,254zm170 -387c-58,0 -116,1 -174,2 0,-99 0,-198 0,-297 58,0 116,0 174,0 229,-9 207,300 0,295zm487 -437l147 0 0 830 -147 0 0 -830zm496 830l-138 0 0 -806 377 470 376 -470 0 806 -137 0 0 -409 -238 283 -1 2 -1 -2 -238 -283 0 409z"/>
    <path class="fil3" d="M10897 15627l0 34 -150 0 0 -217 147 0 0 35 -106 0 0 55 97 0 0 34 -97 0 0 59 109 0zm317 34l-54 -80 -54 80 -48 0 79 -112 -73 -105 48 0 48 73 48 -73 48 0 -73 105 78 112 -47 0zm308 -217c11,0 22,2 31,5 9,4 17,8 24,15 6,6 11,13 15,22 4,8 6,18 6,28 0,11 -2,21 -6,30 -4,9 -9,17 -16,23 -6,7 -15,12 -24,15 -10,4 -20,5 -32,5l-45 0 0 74 -41 0 0 -217 88 0zm-5 109c12,0 21,-3 28,-10 7,-7 10,-16 10,-27 0,-11 -3,-20 -10,-27 -7,-7 -16,-10 -28,-10l-42 0 0 74 42 0zm348 28l-45 0 0 80 -41 0 0 -217 91 0c11,0 22,2 31,5 9,4 17,8 24,14 7,6 12,13 15,22 4,8 6,18 6,28 0,14 -4,26 -11,37 -7,10 -17,18 -29,24l57 87 -49 0 -49 -80zm-45 -34l42 0c12,0 22,-3 30,-9 7,-6 11,-15 11,-25 0,-10 -3,-19 -10,-25 -7,-6 -16,-9 -28,-9l-45 0 0 68zm470 80l0 34 -149 0 0 -217 147 0 0 35 -106 0 0 55 97 0 0 34 -97 0 0 59 108 0zm257 37c-15,0 -29,-2 -43,-7 -13,-4 -25,-11 -34,-20l16 -28c9,8 18,13 28,16 10,3 20,5 30,5 14,0 25,-2 32,-7 8,-4 12,-11 12,-19 0,-5 -2,-9 -4,-12 -2,-3 -5,-6 -9,-8 -4,-3 -9,-5 -14,-7 -6,-2 -12,-4 -19,-6l-12 -4c-9,-2 -17,-5 -25,-8 -8,-3 -14,-7 -20,-12 -5,-5 -10,-10 -13,-17 -3,-6 -5,-14 -5,-23 0,-10 2,-19 6,-27 4,-8 9,-15 16,-21 7,-5 16,-10 26,-13 10,-3 21,-5 33,-5 14,0 27,2 39,7 12,4 23,10 34,18l-19 29c-8,-6 -16,-11 -25,-14 -9,-4 -18,-5 -29,-5 -12,0 -21,2 -28,6 -7,5 -10,11 -10,19 0,4 1,8 3,11 2,3 5,5 8,7 4,3 8,5 13,6 4,2 9,4 15,5l12 4c9,2 17,5 25,8 8,4 16,8 22,14 7,5 12,11 16,18 4,8 6,16 6,26 0,9 -2,18 -6,26 -4,8 -9,15 -17,20 -7,6 -16,10 -26,13 -10,4 -22,5 -34,5zm335 0c-15,0 -29,-2 -42,-7 -13,-4 -25,-11 -35,-20l16 -28c9,8 19,13 29,16 10,3 20,5 30,5 14,0 24,-2 32,-7 7,-4 11,-11 11,-19 0,-5 -1,-9 -3,-12 -3,-3 -6,-6 -10,-8 -3,-3 -8,-5 -14,-7 -5,-2 -11,-4 -18,-6l-13 -4c-9,-2 -17,-5 -25,-8 -7,-3 -14,-7 -19,-12 -6,-5 -10,-10 -14,-17 -3,-6 -4,-14 -4,-23 0,-10 2,-19 6,-27 3,-8 9,-15 16,-21 7,-5 15,-10 25,-13 10,-3 21,-5 33,-5 14,0 27,2 39,7 13,4 24,10 34,18l-18 29c-8,-6 -17,-11 -25,-14 -9,-4 -19,-5 -29,-5 -12,0 -21,2 -28,6 -7,5 -11,11 -11,19 0,4 1,8 4,11 2,3 4,5 8,7 3,3 7,5 12,6 5,2 10,4 15,5l13 4c8,2 16,5 25,8 8,4 15,8 22,14 6,5 12,11 16,18 4,8 6,16 6,26 0,9 -2,18 -6,26 -4,8 -10,15 -17,20 -7,6 -16,10 -26,13 -11,4 -22,5 -35,5z"/>
    <polygon class="fil4" points="9842,14191 8701,14850 8701,16167 9842,15509 "/>
    <path class="fil5" d="M8701 14393l396 229 0 456 -396 229 -396 -229 0 -456 396 -229zm0 -413l754 435 0 870 -509 294 -245 588 -246 -589 -508 -293 0 -870 754 -435z"/>
    <polygon class="fil6" points="8701,14393 9097,14622 9455,14415 8701,13980 7947,14415 8305,14622 "/>
   </g>
  </g>
 </g>
</svg>
