<?xml version="1.0" encoding="UTF-8"?>
<!DOCTYPE svg PUBLIC "-//W3C//DTD SVG 1.1//EN" "http://www.w3.org/Graphics/SVG/1.1/DTD/svg11.dtd">
<!-- Creator: CorelDRAW -->
<svg xmlns="http://www.w3.org/2000/svg" xml:space="preserve" width="210mm" height="297mm" version="1.1" style="shape-rendering:geometricPrecision; text-rendering:geometricPrecision; image-rendering:optimizeQuality; fill-rule:evenodd; clip-rule:evenodd"
viewBox="0 0 21000 29700"
 xmlns:xlink="http://www.w3.org/1999/xlink"
 enable-background="new 0 0 334 84"
 xmlns:dc="http://purl.org/dc/elements/1.1/"
 xmlns:cc="http://creativecommons.org/ns#"
 xmlns:rdf="http://www.w3.org/1999/02/22-rdf-syntax-ns#"
 xmlns:svg="http://www.w3.org/2000/svg"
 xmlns:sodipodi="http://sodipodi.sourceforge.net/DTD/sodipodi-0.dtd"
 xmlns:inkscape="http://www.inkscape.org/namespaces/inkscape"
 sodipodi:docname="RCL-logo-only.svg"
 inkscape:version="0.92.2 (5c3e80d, 2017-08-06)">
 <defs>
  <style type="text/css">
   <![CDATA[
    .fil0 {fill:red}
    .fil1 {fill:red;fill-rule:nonzero}
   ]]>
  </style>
 </defs>
 <g id="Layer_x0020_1">
  <metadata id="CorelCorpID_0Corel-Layer"/>
  <g id="RCL_x0020_express.cdr">
   <sodipodi:namedview pagecolor="#ffffff" bordercolor="#666666" borderopacity="1" objecttolerance="10" gridtolerance="10" guidetolerance="10" inkscape:pageopacity="0" inkscape:pageshadow="2" inkscape:window-width="1280" inkscape:window-height="1004" id="namedview198" showgrid="false" fit-margin-top="0" fit-margin-left="0" fit-margin-right="0" fit-margin-bottom="0" inkscape:zoom="8.7486948" inkscape:cx="247.11667" inkscape:cy="40.949792" inkscape:window-x="-8" inkscape:window-y="-8" inkscape:window-maximized="1" inkscape:current-layer="g3"/>
   <sodipodi:namedview id="base" pagecolor="#00ffff" bordercolor="#666666" borderopacity="1.0" inkscape:pageopacity="0" inkscape:pageshadow="2" inkscape:zoom="1.4" inkscape:cx="451.73565" inkscape:cy="-10.201303" inkscape:document-units="px" inkscape:current-layer="layer1" showgrid="false" fit-margin-left="0.3" fit-margin-top="0.3" fit-margin-right="0.3" fit-margin-bottom="0.3" units="px" inkscape:window-width="1920" inkscape:window-height="1001" inkscape:window-x="-9" inkscape:window-y="-9" inkscape:window-maximized="1"/>
   <sodipodi:namedview pagecolor="#ffffff" bordercolor="#666666" borderopacity="1" objecttolerance="10" gridtolerance="10" guidetolerance="10" inkscape:pageopacity="0" inkscape:pageshadow="2" inkscape:window-width="1366" inkscape:window-height="705" id="namedview3798" showgrid="false" inkscape:zoom="4.167072" inkscape:cx="110.96444" inkscape:cy="15.572142" inkscape:window-x="263" inkscape:window-y="1072" inkscape:window-maximized="1" inkscape:current-layer="RCL-logo-red"/>
   <g id="Layer_1">
   </g>
   <g id="Layer_3">
   </g>
   <g id="Layer_6">
   </g>
   <g id="Layer_4">
   </g>
   <g id="Layer_5">
   </g>
   <g id="Layer_7">
   </g>
   <g>
    <path class="fil0" d="M11545 15158l-57 0 -28 61 56 0 0 0c29,0 50,-15 53,-36 7,-14 -7,-25 -24,-25zm-291 0l-57 0 -28 61 57 0 0 0c28,0 49,-15 53,-36 3,-14 -7,-25 -25,-25zm-2717 -134l-96 216c0,0 -187,-67 -223,67 -28,110 85,135 85,135l4265 0 195 -436 -4226 18zm2161 223l-124 0 -21 53 127 0 -21 43 -184 0 99 -231 184 0 -18 43 -127 0 -21 49 124 0 -18 43zm227 96l-32 -82 -99 82 -68 0 149 -121 -46 -106 64 0 28 74 89 -74 70 0 -138 113 46 114 -63 0zm414 -163c-7,35 -42,85 -124,85l-64 0 -35 81 -57 0 99 -230 117 0c46,0 71,28 64,64zm294 0c-7,42 -46,74 -88,78l21 85 -64 0 -14 -82 -43 0 -35 82 -57 0 99 -231 110 0c43,4 78,29 71,68zm262 24l-17 43 -128 0 -21 53 127 0 -17 43 -185 0 100 -231 184 0 -18 43 -128 0 -21 49 124 0zm262 -21c-14,-21 -46,-28 -70,-28 -22,0 -36,11 -39,21 -8,28 120,25 109,92 -7,43 -53,78 -117,78 -49,0 -92,-18 -109,-42l42 -36c14,22 46,36 82,36 28,0 42,-14 42,-25 7,-32 -120,-25 -110,-92 7,-39 53,-75 114,-75 42,0 78,15 95,36l-39 35zm284 0c-14,-21 -46,-28 -71,-28 -21,0 -36,11 -39,21 -7,28 120,25 110,92 -7,43 -53,78 -117,78 -50,0 -92,-18 -110,-42l43 -36c14,22 46,36 81,36 28,0 42,-14 42,-25 8,-32 -120,-25 -109,-92 7,-39 53,-75 113,-75 43,0 78,15 96,36l-39 35zm-4290 117c18,-184 237,-173 251,-149l149 -333 -113 0c-117,0 -237,82 -291,199l-53 120c-67,156 14,301 167,308 -78,-10 -117,-85 -110,-145z"/>
    <path class="fil0" d="M10021 13749l-751 0 -152 0 -531 1154 0 0 0 0 0 0 156 0 0 0 177 0 134 -297 291 0 138 297 358 0 -160 -297c0,0 71,0 160,0 102,0 148,-18 187,-106l188 -408c85,-173 -14,-343 -195,-343zm-170 372l-81 162c-11,25 -36,43 -64,43l-521 0 142 -290 461 0c38,0 81,39 63,85zm1566 499l-857 0c-32,0 -50,-32 -36,-60l195 -397c60,-127 121,-110 167,-110l800 0 131 -287c-528,0 -386,0 -361,0l-662 -7c-142,0 -287,99 -351,238l-301 648c-60,131 10,265 145,265l1002 0c4,-14 128,-290 128,-290zm1513 18l-914 0c-32,0 -50,-32 -36,-60l379 -819 -354 0 -414 886c-61,131 10,265 145,265l1066 0c4,-7 128,-272 128,-272z"/>
    <path class="fil1" d="M8570 15858l-50 0 0 90 -47 0 0 -244 102 0c13,0 25,2 36,5 10,4 19,9 27,16 7,7 13,15 17,24 4,10 6,20 6,32 0,16 -4,30 -12,41 -8,12 -19,21 -33,27l64 99 -55 0 -55 -90zm-50 -38l47 0c14,0 25,-4 33,-11 9,-7 13,-16 13,-28 0,-12 -4,-21 -12,-28 -7,-7 -18,-11 -31,-11l-50 0 0 78zm363 89l0 39 -168 0 0 -244 166 0 0 38 -120 0 0 63 109 0 0 38 -109 0 0 66 122 0zm142 -205c18,0 35,3 50,8 15,6 27,15 38,25 11,11 19,24 24,39 6,15 9,32 9,50 0,18 -3,35 -9,50 -5,15 -13,28 -24,39 -11,10 -23,19 -38,24 -15,6 -32,9 -50,9l-96 0 0 -244 96 0zm0 205c11,0 21,-2 30,-5 9,-4 16,-10 23,-17 6,-8 11,-17 14,-27 4,-10 5,-22 5,-34 0,-13 -1,-24 -5,-34 -3,-11 -8,-19 -14,-27 -7,-7 -14,-13 -23,-17 -9,-4 -19,-6 -30,-6l-49 0 0 167 49 0zm361 42c-19,0 -37,-3 -53,-9 -16,-6 -30,-14 -41,-25 -11,-11 -20,-25 -26,-40 -7,-16 -10,-33 -10,-52 0,-18 3,-36 10,-51 6,-15 14,-29 26,-39 11,-11 25,-20 41,-26 16,-6 33,-9 53,-9 40,0 72,13 96,40l-29 29c-7,-9 -16,-16 -28,-22 -11,-5 -24,-8 -39,-8 -12,0 -23,2 -33,6 -10,4 -19,10 -26,18 -7,8 -13,17 -17,27 -3,11 -5,23 -5,36 0,13 2,25 5,35 4,11 10,20 17,28 8,7 16,13 26,17 11,5 22,7 34,7 17,0 31,-4 42,-11 12,-7 22,-16 29,-28l32 28c-12,16 -27,28 -44,37 -17,8 -37,12 -60,12zm289 -51l-112 0 -20 48 -50 0 104 -244 44 0 104 244 -50 0 -20 -48zm-15 -39l-41 -100 -41 100 82 0zm210 -3l-50 0 0 90 -47 0 0 -244 103 0c13,0 24,2 35,5 10,4 19,9 27,16 7,7 13,15 17,24 4,10 6,20 6,32 0,16 -4,30 -12,41 -8,12 -19,21 -33,27l64 99 -54 0 -56 -90zm-50 -38l47 0c14,0 25,-4 34,-11 8,-7 12,-16 12,-28 0,-12 -4,-21 -11,-28 -8,-7 -19,-11 -32,-11l-50 0 0 78zm294 -116c13,0 25,2 35,5 11,4 19,9 27,16 7,7 13,16 17,25 4,10 6,21 6,33 0,12 -2,23 -6,33 -4,10 -10,19 -18,26 -7,7 -16,13 -27,17 -11,4 -23,6 -36,6l-51 0 0 83 -46 0 0 -244 99 0zm-5 122c13,0 24,-4 31,-11 8,-8 12,-18 12,-31 0,-12 -4,-22 -12,-30 -8,-8 -18,-12 -31,-12l-48 0 0 84 48 0zm298 83l0 39 -169 0 0 -244 166 0 0 38 -120 0 0 63 109 0 0 38 -109 0 0 66 123 0zm217 -167l-75 0 0 206 -46 0 0 -206 -75 0 0 -38 196 0 0 38zm259 167l0 39 -154 0 0 -244 46 0 0 205 108 0zm137 42c-19,0 -36,-3 -52,-9 -16,-6 -30,-14 -41,-25 -11,-11 -20,-24 -26,-40 -6,-15 -9,-32 -9,-51 0,-19 3,-36 9,-52 6,-15 15,-28 26,-39 11,-11 25,-20 41,-26 16,-6 33,-9 52,-9 19,0 37,3 53,9 15,6 29,15 40,26 11,11 20,24 26,39 6,16 10,33 10,52 0,19 -4,36 -10,51 -6,16 -15,29 -26,40 -11,11 -25,19 -40,25 -16,6 -34,9 -53,9zm0 -38c12,0 23,-2 33,-7 10,-4 18,-10 25,-17 7,-8 13,-17 17,-28 3,-10 5,-22 5,-35 0,-13 -2,-25 -5,-36 -4,-10 -10,-19 -17,-27 -7,-8 -15,-14 -25,-18 -10,-4 -21,-6 -33,-6 -12,0 -22,2 -32,6 -10,4 -19,10 -26,18 -7,8 -12,17 -16,27 -4,11 -6,23 -6,36 0,13 2,25 6,35 4,11 9,20 16,28 7,7 16,13 26,17 10,5 20,7 32,7zm403 -103c0,3 0,6 1,8 0,3 0,5 0,8 0,19 -3,36 -9,51 -5,16 -13,29 -24,40 -10,11 -23,19 -38,25 -15,6 -31,9 -50,9 -19,0 -36,-3 -51,-9 -16,-6 -29,-14 -40,-25 -11,-11 -20,-24 -26,-40 -6,-15 -9,-32 -9,-51 0,-19 3,-36 9,-52 6,-15 15,-28 26,-39 11,-11 24,-20 39,-26 16,-6 33,-9 52,-9 35,0 64,9 87,27l-31 30c-13,-12 -31,-18 -55,-18 -12,0 -23,2 -32,6 -10,4 -18,10 -25,18 -7,8 -12,17 -16,27 -4,11 -6,23 -6,36 0,13 2,25 6,35 4,11 9,20 16,28 7,7 15,13 25,17 9,5 20,7 31,7 21,0 37,-6 50,-18 13,-11 20,-27 22,-46l-63 0 0 -39 111 0zm39 -106l46 0 0 244 -46 0 0 -244zm181 247c-17,0 -33,-2 -48,-7 -15,-6 -28,-13 -39,-23l18 -32c11,9 22,15 33,18 11,4 22,6 34,6 15,0 27,-3 36,-8 8,-5 12,-12 12,-22 0,-5 -1,-9 -4,-13 -2,-3 -6,-7 -10,-9 -4,-3 -10,-6 -16,-8 -6,-2 -13,-4 -21,-7l-14 -4c-10,-2 -19,-5 -28,-9 -8,-4 -16,-8 -22,-14 -6,-5 -11,-11 -15,-19 -4,-7 -5,-15 -5,-25 0,-12 2,-22 6,-31 5,-9 11,-17 19,-23 8,-7 17,-12 28,-15 11,-4 24,-6 37,-6 16,0 31,3 44,7 14,5 27,12 39,21l-21 33c-9,-7 -19,-13 -29,-17 -10,-3 -20,-5 -32,-5 -14,0 -24,3 -32,8 -7,5 -11,12 -11,20 0,5 1,9 3,12 3,4 6,7 10,9 4,3 8,5 13,7 6,2 11,4 17,5l15 4c9,3 18,6 28,10 9,4 17,9 25,15 7,6 13,13 18,21 4,8 7,18 7,29 0,11 -3,21 -7,30 -5,9 -11,16 -19,22 -9,7 -19,12 -30,15 -12,4 -25,5 -39,5zm304 -209l-75 0 0 206 -46 0 0 -206 -75 0 0 -38 196 0 0 38zm34 -38l47 0 0 244 -47 0 0 -244zm220 247c-20,0 -37,-3 -53,-9 -16,-6 -30,-14 -41,-25 -12,-11 -20,-25 -27,-40 -6,-16 -9,-33 -9,-52 0,-18 3,-36 9,-51 6,-15 15,-29 26,-39 12,-11 25,-20 41,-26 16,-6 34,-9 53,-9 40,0 73,13 97,40l-30 29c-7,-9 -16,-16 -27,-22 -12,-5 -24,-8 -39,-8 -12,0 -24,2 -34,6 -10,4 -18,10 -25,18 -7,8 -13,17 -17,27 -4,11 -6,23 -6,36 0,13 2,25 6,35 4,11 10,20 17,28 7,7 16,13 26,17 10,5 21,7 34,7 16,0 30,-4 42,-11 12,-7 21,-16 29,-28l31 28c-12,16 -26,28 -44,37 -17,8 -37,12 -59,12zm215 0c-17,0 -33,-2 -48,-7 -14,-6 -27,-13 -38,-23l17 -32c11,9 22,15 33,18 11,4 23,6 34,6 15,0 27,-3 36,-8 8,-5 12,-12 12,-22 0,-5 -1,-9 -4,-13 -2,-3 -6,-7 -10,-9 -4,-3 -10,-6 -16,-8 -6,-2 -13,-4 -21,-7l-14 -4c-10,-2 -19,-5 -28,-9 -8,-4 -16,-8 -22,-14 -6,-5 -11,-11 -15,-19 -4,-7 -5,-15 -5,-25 0,-12 2,-22 6,-31 5,-9 11,-17 19,-23 8,-7 17,-12 28,-15 11,-4 24,-6 37,-6 16,0 31,3 44,7 14,5 27,12 39,21l-21 33c-9,-7 -19,-13 -29,-17 -10,-3 -20,-5 -32,-5 -14,0 -24,3 -32,8 -7,5 -11,12 -11,20 0,5 1,9 3,12 3,4 6,7 10,9 4,3 8,5 14,7 5,2 10,4 16,5l15 4c9,3 18,6 28,10 9,4 17,9 25,15 7,6 13,13 18,21 4,8 7,18 7,29 0,11 -3,21 -7,30 -5,9 -11,16 -19,22 -9,7 -19,12 -30,15 -12,4 -25,5 -39,5z"/>
   </g>
  </g>
 </g>
</svg>
